STARTFONT 2.1
COMMENT METAFONT output 1995.04.13:1748
COMMENT fontid=MSBM V2.2
COMMENT codingscheme=TeX math symbols
COMMENT fontfacebyte
COMMENT jobname=msbm10
COMMENT mag=0.5
COMMENT mode=cx
COMMENT pixels_per_inch=300
COMMENT blacker=0
COMMENT fillin=0.2
COMMENT o_correction=0.6
COMMENT Checksum 88b616c8
COMMENT 
COMMENT This file is made by pktobdf using the above specified pk file.
COMMENT 
FONT -metafont-msbm10-medium-r-normal--21-200-75-75-P-131-MetaFont-FONTSPECIFIC
SIZE 21 75 75
FONTBOUNDINGBOX 48 31 -1 -12
STARTPROPERTIES 21
FONT_ASCENT 17
FONT_DESCENT 9
FOUNDRY "metafont"
FAMILY_NAME "msbm10"
WEIGHT_NAME "medium"
SLANT "r"
SETWIDTH_NAME "normal"
ADD_STYLE_NAME ""
PIXEL_SIZE 21
POINT_SIZE 200
RESOLUTOIN_X 75
RESOLUTOIN_Y 75
SPACING "P"
AVERAGE_WIDTH 131
CHARSET_REGISTRY "MetaFont"
CHARSET_ENCODING "FONTSPECIFIC"
AVG_CAPITAL_WIDTH 30
AVG_LOWERCASE_WIDTH 20
COPYRIGHT "MetaFont (public domain)"
DEVICE_FONT_NAME "msbm10"
FULLNAME "msbm10"
ENDPROPERTIES
CHARS 123
STARTCHAR Gamma
ENCODING 0
SWIDTH 765 0
DWIDTH 16 0
BBX 11 25 2 -9
BITMAP
0020
00c0
0300
0400
1800
6000
8000
6000
1800
0400
0300
00c0
0020
0400
0400
0400
ffe0
0400
0400
0400
0400
ffe0
0400
0400
0400
ENDCHAR
STARTCHAR Delta
ENCODING 1
SWIDTH 765 0
DWIDTH 16 0
BBX 11 25 2 -9
BITMAP
8000
6000
1800
0400
0300
00c0
0020
00c0
0300
0400
1800
6000
8000
0400
0400
0400
ffe0
0400
0400
0400
0400
ffe0
0400
0400
0400
ENDCHAR
STARTCHAR Theta
ENCODING 2
SWIDTH 765 0
DWIDTH 16 0
BBX 11 23 2 -6
BITMAP
0040
0040
0080
00a0
00c0
0180
0700
0a00
3200
c200
4400
3400
0c00
0a00
0980
0860
1000
1000
2000
2000
ffe0
4000
4000
ENDCHAR
STARTCHAR Lamdba
ENCODING 3
SWIDTH 765 0
DWIDTH 16 0
BBX 11 23 2 -6
BITMAP
0040
0040
0080
8080
4080
3100
0d00
0200
0380
0260
0440
0580
0600
0800
3800
c800
1000
1000
2000
2000
ffe0
4000
4000
ENDCHAR
STARTCHAR Xi
ENCODING 4
SWIDTH 765 0
DWIDTH 16 0
BBX 11 19 2 -4
BITMAP
0040
0080
0080
00a0
01c0
0300
0600
1a00
6400
8400
6400
1800
0c00
1300
10c0
2020
2000
2000
4000
ENDCHAR
STARTCHAR Pi
ENCODING 5
SWIDTH 765 0
DWIDTH 16 0
BBX 11 19 2 -4
BITMAP
0040
0080
0080
8080
6100
1900
0600
0300
04c0
0420
04c0
0b00
0c00
1800
7000
a000
2000
2000
4000
ENDCHAR
STARTCHAR Sigma
ENCODING 6
SWIDTH 765 0
DWIDTH 16 0
BBX 11 19 2 -4
BITMAP
0040
0040
0080
00a0
0120
0120
0240
0280
0700
fc00
0700
0880
0840
1040
1020
2020
2000
4000
4000
ENDCHAR
STARTCHAR Upsilon
ENCODING 7
SWIDTH 765 0
DWIDTH 16 0
BBX 11 19 2 -4
BITMAP
0040
0040
0080
8080
8100
8100
4200
2200
1c00
07e0
1c00
2800
4800
5000
9000
a000
2000
4000
4000
ENDCHAR
STARTCHAR Phi
ENCODING 8
SWIDTH 765 0
DWIDTH 16 0
BBX 11 24 2 -8
BITMAP
0020
00c0
0300
0400
1800
6000
8000
6000
1800
0400
0300
00c0
0020
0000
0080
0100
ffe0
0200
0400
0400
0800
ffe0
1000
2000
ENDCHAR
STARTCHAR Psi
ENCODING 9
SWIDTH 765 0
DWIDTH 16 0
BBX 11 24 2 -8
BITMAP
8000
6000
1800
0400
0300
00c0
0020
00c0
0300
0400
1800
6000
8000
0000
0080
0100
ffe0
0200
0400
0400
0800
ffe0
1000
2000
ENDCHAR
STARTCHAR Omega
ENCODING 10
SWIDTH 765 0
DWIDTH 16 0
BBX 11 23 2 -6
BITMAP
0040
0040
0080
00a0
00c0
0180
0700
0a00
3200
c200
4400
3400
0c00
0a00
8980
4860
3000
1c00
2200
2180
2060
4000
4000
ENDCHAR
STARTCHAR arrowup
ENCODING 11
SWIDTH 765 0
DWIDTH 16 0
BBX 11 23 2 -6
BITMAP
0040
0040
0080
8080
4080
3100
0d00
0200
0380
0260
0440
0580
0600
0800
3820
c840
1180
1600
2800
3000
e000
4000
4000
ENDCHAR
STARTCHAR arrowdown
ENCODING 12
SWIDTH 765 0
DWIDTH 16 0
BBX 11 20 2 -7
BITMAP
0020
00c0
0300
0400
1800
6000
8000
6000
1800
0400
0300
00c0
0020
0000
0000
0100
0200
ffe0
0800
1000
ENDCHAR
STARTCHAR quotesingle
ENCODING 13
SWIDTH 765 0
DWIDTH 16 0
BBX 11 20 2 -7
BITMAP
8000
6000
1800
0400
0300
00c0
0020
00c0
0300
0400
1800
6000
8000
0000
0000
0100
0200
ffe0
0800
1000
ENDCHAR
STARTCHAR exclamdown
ENCODING 14
SWIDTH 765 0
DWIDTH 16 0
BBX 11 23 2 -6
BITMAP
0040
0040
0080
00a0
00a0
0120
0140
0280
0700
fa00
0700
0480
0440
0840
0820
0820
1000
1000
2000
2000
ffe0
4000
4000
ENDCHAR
STARTCHAR questiondown
ENCODING 15
SWIDTH 765 0
DWIDTH 16 0
BBX 11 23 2 -6
BITMAP
0040
0040
0080
8080
8080
8100
4100
2200
1e00
03e0
1c00
2400
4400
4800
8800
8800
1000
1000
2000
2000
ffe0
4000
4000
ENDCHAR
STARTCHAR dotlessi
ENCODING 16
SWIDTH 765 0
DWIDTH 16 0
BBX 13 25 1 -10
BITMAP
0010
0010
0010
0020
0040
0380
7c00
0380
0040
0020
0010
0010
0010
0000
0080
0080
0100
3908
4608
8208
8310
84e0
0400
0800
0800
ENDCHAR
STARTCHAR dotlessj
ENCODING 17
SWIDTH 765 0
DWIDTH 16 0
BBX 13 25 1 -10
BITMAP
4000
4000
4000
2000
1000
0e00
01f0
0e00
1000
2000
4000
4000
4000
0000
0080
0080
0100
3908
4608
8208
8310
84e0
0400
0800
0800
ENDCHAR
STARTCHAR grave
ENCODING 18
SWIDTH 765 0
DWIDTH 16 0
BBX 13 25 1 -10
BITMAP
0010
0060
0180
0200
0c00
3000
4000
3000
0c00
0200
0180
0060
0010
0000
0080
0080
0100
3908
4608
8208
8310
84e0
0400
0800
0800
ENDCHAR
STARTCHAR acute
ENCODING 19
SWIDTH 765 0
DWIDTH 16 0
BBX 13 25 1 -10
BITMAP
4000
3000
0c00
0200
0180
0060
0010
0060
0180
0200
0c00
3000
4000
0000
0080
0080
0100
3908
4608
8208
8310
84e0
0400
0800
0800
ENDCHAR
STARTCHAR caron
ENCODING 20
SWIDTH 765 0
DWIDTH 16 0
BBX 11 28 2 -9
BITMAP
0040
0040
0080
00a0
00c0
0180
0700
0900
3100
c200
4200
3200
0c00
0600
0580
0460
0800
0800
0800
ffe0
1000
1000
2000
2000
ffe0
2000
4000
4000
ENDCHAR
STARTCHAR breve
ENCODING 21
SWIDTH 765 0
DWIDTH 16 0
BBX 11 28 2 -9
BITMAP
0040
0040
0080
8080
4080
3080
0d00
0300
0180
0260
0240
0380
0600
0c00
3400
c400
0800
0800
0800
ffe0
1000
1000
2000
2000
ffe0
2000
4000
4000
ENDCHAR
STARTCHAR macron
ENCODING 22
SWIDTH 765 0
DWIDTH 16 0
BBX 11 24 2 -8
BITMAP
0020
0020
0040
0040
0180
0600
f800
0600
0180
0040
0040
0020
0020
0000
0080
0100
ffe0
0200
0400
0400
0800
ffe0
1000
2000
ENDCHAR
STARTCHAR ring
ENCODING 23
SWIDTH 765 0
DWIDTH 16 0
BBX 11 24 2 -8
BITMAP
8000
8000
4000
4000
3000
0c00
03e0
0c00
3000
4000
4000
8000
8000
0000
0080
0100
ffe0
0200
0400
0400
0800
ffe0
1000
2000
ENDCHAR
STARTCHAR cedilla
ENCODING 24
SWIDTH 765 0
DWIDTH 16 0
BBX 13 22 1 -6
BITMAP
0010
0010
0020
0040
0180
7e00
0380
0040
0020
0010
0010
0000
3888
4488
8308
8110
82e0
3a08
4408
8608
8910
88e0
ENDCHAR
STARTCHAR germandbls
ENCODING 25
SWIDTH 765 0
DWIDTH 16 0
BBX 13 22 1 -6
BITMAP
4000
4000
2000
1000
0c00
03f0
0e00
1000
2000
4000
4000
0000
3888
4488
8308
8110
82e0
3a08
4408
8608
8910
88e0
ENDCHAR
STARTCHAR ae
ENCODING 26
SWIDTH 765 0
DWIDTH 16 0
BBX 13 23 1 -7
BITMAP
0010
0060
0180
0600
1800
6000
3000
0c00
0300
00c0
0030
0080
3888
4508
8308
8110
82e0
3a08
4408
8608
8510
88e0
0800
ENDCHAR
STARTCHAR oe
ENCODING 27
SWIDTH 765 0
DWIDTH 16 0
BBX 13 23 1 -7
BITMAP
4000
3000
0c00
0300
00c0
0030
0060
0180
0600
1800
6000
0080
3888
4508
8308
8110
82e0
3a08
4408
8608
8510
88e0
0800
ENDCHAR
STARTCHAR oslash
ENCODING 28
SWIDTH 765 0
DWIDTH 16 0
BBX 13 9 1 1
BITMAP
0040
0080
3908
7d08
c718
87f0
84e0
0800
1000
ENDCHAR
STARTCHAR AE
ENCODING 29
SWIDTH 765 0
DWIDTH 16 0
BBX 13 16 1 -3
BITMAP
0020
3c48
4448
8290
81b0
8140
0100
0200
0400
0400
fff8
0800
1000
1000
2000
fff8
ENDCHAR
STARTCHAR OE
ENCODING 30
SWIDTH 861 0
DWIDTH 18 0
BBX 18 19 0 -4
BITMAP
000040
000080
000100
000200
000400
000800
000800
001000
002000
004000
008000
010000
020000
040000
080000
100000
200000
400000
800000
ENDCHAR
STARTCHAR Oslash
ENCODING 31
SWIDTH 861 0
DWIDTH 18 0
BBX 18 19 0 -4
BITMAP
800000
400000
200000
100000
080000
040000
020000
010000
008000
004000
002000
001000
000800
000800
000400
000200
000100
000080
000040
ENDCHAR
STARTCHAR tilde
ENCODING 32
SWIDTH 765 0
DWIDTH 16 0
BBX 11 20 2 -7
BITMAP
1fe0
2000
4000
4000
8000
8000
8000
8000
8000
4000
4080
2100
1fe0
0200
0400
0400
0800
ffe0
1000
2000
ENDCHAR
STARTCHAR exclam
ENCODING 33
SWIDTH 765 0
DWIDTH 16 0
BBX 11 20 2 -7
BITMAP
ff00
0080
0040
0040
0020
0020
0020
0020
0020
0040
0240
0480
ff00
0800
1000
1000
2000
ffe0
4000
8000
ENDCHAR
STARTCHAR quotedblright
ENCODING 34
SWIDTH 765 0
DWIDTH 16 0
BBX 11 24 2 -7
BITMAP
0040
1fe0
2040
4080
4080
8100
8100
8100
8200
8200
4400
4400
2400
1fe0
0800
1000
1000
1000
ffe0
2000
4000
4000
4000
ffe0
ENDCHAR
STARTCHAR numbersign
ENCODING 35
SWIDTH 765 0
DWIDTH 16 0
BBX 11 24 2 -7
BITMAP
0040
ff40
00c0
00c0
00c0
0120
0120
0120
0220
0220
0440
0440
0480
ff00
0800
1000
1000
1000
ffe0
2000
4000
4000
4000
ffe0
ENDCHAR
STARTCHAR dollar
ENCODING 36
SWIDTH 765 0
DWIDTH 16 0
BBX 11 28 2 -12
BITMAP
1fe0
2000
4000
4000
8000
8000
8000
8000
8000
4000
4000
2000
1fe0
0000
0000
0000
0080
0080
0100
ffe0
0200
0400
0800
0800
ffe0
1000
2000
4000
ENDCHAR
STARTCHAR percent
ENCODING 37
SWIDTH 765 0
DWIDTH 16 0
BBX 11 28 2 -12
BITMAP
ff00
0080
0040
0040
0020
0020
0020
0020
0020
0040
0040
0080
ff00
0000
0000
0000
0080
0080
0100
ffe0
0200
0400
0800
0800
ffe0
1000
2000
4000
ENDCHAR
STARTCHAR ampersand
ENCODING 38
SWIDTH 765 0
DWIDTH 16 0
BBX 11 25 2 -9
BITMAP
1fe0
2000
4000
4000
8000
8000
8000
8000
8000
4000
4040
2040
1fe0
0080
0080
0100
0100
ffe0
0200
0400
0400
0800
ffe0
1000
1000
ENDCHAR
STARTCHAR quoteright
ENCODING 39
SWIDTH 765 0
DWIDTH 16 0
BBX 11 25 2 -9
BITMAP
ff00
0080
0040
0040
0020
0020
0020
0020
0020
0040
0440
0480
ff00
0800
0800
1000
1000
ffe0
2000
2000
2000
4000
ffe0
4000
8000
ENDCHAR
STARTCHAR parenleft
ENCODING 40
SWIDTH 765 0
DWIDTH 16 0
BBX 11 20 2 -7
BITMAP
1fe0
2000
4000
4000
8000
8000
8000
8000
8000
4000
4000
2000
1fe0
0000
0000
0100
0200
ffe0
0800
1000
ENDCHAR
STARTCHAR parenright
ENCODING 41
SWIDTH 765 0
DWIDTH 16 0
BBX 11 20 2 -7
BITMAP
ff00
0080
0040
0040
0020
0020
0020
0020
0020
0040
0040
0080
ff00
0000
0000
0100
0200
ffe0
0800
1000
ENDCHAR
STARTCHAR asterisk
ENCODING 42
SWIDTH 765 0
DWIDTH 16 0
BBX 11 23 2 -6
BITMAP
0040
0040
0080
1fe0
2080
4100
4100
8200
8200
8200
8400
8400
4400
4800
2800
1fe0
1000
1000
2000
2000
ffe0
4000
4000
ENDCHAR
STARTCHAR plus
ENCODING 43
SWIDTH 765 0
DWIDTH 16 0
BBX 11 23 2 -6
BITMAP
0040
0040
0080
ff80
0080
0140
0140
0220
0220
0220
0420
0420
0440
0840
0880
ff00
1000
1000
2000
2000
ffe0
4000
4000
ENDCHAR
STARTCHAR comma
ENCODING 44
SWIDTH 478 0
DWIDTH 10 0
BBX 9 21 0 -5
BITMAP
4100
4100
4100
4100
4100
4180
4100
4100
4300
4500
4900
5100
6100
4100
4100
c100
4100
4100
4100
4100
4100
ENDCHAR
STARTCHAR hyphen
ENCODING 45
SWIDTH 287 0
DWIDTH 6 0
BBX 5 21 0 -5
BITMAP
20
20
20
20
20
28
30
20
20
60
a0
20
20
20
20
20
20
20
20
20
20
ENDCHAR
STARTCHAR period
ENCODING 46
SWIDTH 239 0
DWIDTH 5 0
BBX 5 9 0 0
BITMAP
20
28
30
20
60
a0
a0
20
20
ENDCHAR
STARTCHAR slash
ENCODING 47
SWIDTH 382 0
DWIDTH 8 0
BBX 8 9 0 0
BITMAP
44
47
44
4c
74
44
c4
44
44
ENDCHAR
STARTCHAR 0
ENCODING 48
SWIDTH 621 0
DWIDTH 13 0
BBX 12 14 -1 0
BITMAP
2010
2020
2040
2080
2100
2100
3ff0
2400
2800
3000
2000
2000
6000
a000
ENDCHAR
STARTCHAR 1
ENCODING 49
SWIDTH 717 0
DWIDTH 15 0
BBX 14 14 -1 0
BITMAP
2104
2108
2110
2120
2140
2180
21fc
2300
2500
2900
3100
2100
6100
a100
ENDCHAR
STARTCHAR 2
ENCODING 50
SWIDTH 621 0
DWIDTH 13 0
BBX 12 14 -1 0
BITMAP
2010
2020
2040
3ff0
2100
2100
2200
2400
3ff0
3000
2000
2000
6000
a000
ENDCHAR
STARTCHAR 3
ENCODING 51
SWIDTH 717 0
DWIDTH 15 0
BBX 14 14 -1 0
BITMAP
2104
2108
2110
21fc
2140
2180
2100
2300
2500
29fc
3100
2100
6100
a100
ENDCHAR
STARTCHAR 4
ENCODING 52
SWIDTH 765 0
DWIDTH 16 0
BBX 11 23 2 -6
BITMAP
0040
0080
0080
8080
c100
b100
8d00
8300
8280
8260
8460
8580
8600
8c00
b800
c800
1000
1000
1000
2000
ffe0
2000
4000
ENDCHAR
STARTCHAR 5
ENCODING 53
SWIDTH 765 0
DWIDTH 16 0
BBX 10 23 3 -6
BITMAP
0080
0100
0100
0140
02c0
0340
0640
1c40
2440
c440
c840
2840
1840
1440
1340
10c0
2000
2000
2000
4000
ffc0
4000
8000
ENDCHAR
STARTCHAR 6
ENCODING 54
SWIDTH 765 0
DWIDTH 16 0
BBX 10 19 3 -4
BITMAP
0080
0100
0100
0140
02c0
0340
0440
1c40
2840
c840
c840
3040
1840
2440
2340
20c0
4000
4000
8000
ENDCHAR
STARTCHAR 7
ENCODING 55
SWIDTH 765 0
DWIDTH 16 0
BBX 11 19 2 -4
BITMAP
0040
0080
0080
8080
c100
b100
8e00
8300
8480
8460
8460
8980
8a00
9c00
b000
d000
2000
2000
4000
ENDCHAR
STARTCHAR 8
ENCODING 56
SWIDTH 1004 0
DWIDTH 21 0
BBX 18 7 1 2
BITMAP
101000
202000
604000
ffffc0
608000
210000
120000
ENDCHAR
STARTCHAR 9
ENCODING 57
SWIDTH 1004 0
DWIDTH 21 0
BBX 18 7 1 2
BITMAP
001200
002100
004180
ffffc0
008180
010100
020200
ENDCHAR
STARTCHAR colon
ENCODING 58
SWIDTH 1004 0
DWIDTH 21 0
BBX 17 12 2 0
BITMAP
000800
041000
081000
1fff80
302000
c02000
c04000
204000
108000
0fff80
088000
050000
ENDCHAR
STARTCHAR semicolon
ENCODING 59
SWIDTH 1004 0
DWIDTH 21 0
BBX 17 12 1 0
BITMAP
004000
005000
008800
fffc00
010600
010180
010180
020200
020400
fff800
040800
041000
ENDCHAR
STARTCHAR less
ENCODING 60
SWIDTH 1004 0
DWIDTH 21 0
BBX 16 13 2 -1
BITMAP
0040
0850
1048
1ff8
6086
c083
8101
4102
2104
1ff8
1208
0a10
0200
ENDCHAR
STARTCHAR equal
ENCODING 61
SWIDTH 1004 0
DWIDTH 21 0
BBX 18 7 1 2
BITMAP
101200
202100
604180
ffffc0
608180
210100
120200
ENDCHAR
STARTCHAR greater
ENCODING 62
SWIDTH 765 0
DWIDTH 16 0
BBX 13 11 1 0
BITMAP
0300
2320
1040
0880
0500
fff8
0500
0880
1040
2320
0300
ENDCHAR
STARTCHAR question
ENCODING 63
SWIDTH 765 0
DWIDTH 16 0
BBX 11 10 2 1
BITMAP
3fa0
4040
40c0
8120
8220
8c20
9020
6040
4040
bf80
ENDCHAR
STARTCHAR at
ENCODING 64
SWIDTH 574 0
DWIDTH 12 0
BBX 9 20 1 -3
BITMAP
0200
0200
0200
ff80
0480
0480
0480
0480
0880
7f80
0880
0880
1080
1080
1080
1080
ff80
2000
2000
2000
ENDCHAR
STARTCHAR A
ENCODING 65
SWIDTH 717 0
DWIDTH 15 0
BBX 15 14 0 0
BITMAP
0100
0300
0280
0480
0440
0440
0a20
0a20
1110
1f10
3088
3088
3084
fbfe
ENDCHAR
STARTCHAR B
ENCODING 66
SWIDTH 669 0
DWIDTH 14 0
BBX 13 14 0 0
BITMAP
ffe0
2310
2310
2310
2320
23c0
27c0
2330
2308
2308
2308
2308
2310
ffe0
ENDCHAR
STARTCHAR C
ENCODING 67
SWIDTH 717 0
DWIDTH 15 0
BBX 13 14 1 0
BITMAP
0f88
3478
4418
4408
8400
8400
8400
8400
8400
8400
4400
4408
3430
0fc0
ENDCHAR
STARTCHAR D
ENCODING 68
SWIDTH 621 0
DWIDTH 13 0
BBX 15 14 0 0
BITMAP
ffe0
2298
2244
2244
2242
2242
2242
2242
2242
2242
2244
2244
2298
ffe0
ENDCHAR
STARTCHAR E
ENCODING 69
SWIDTH 669 0
DWIDTH 14 0
BBX 14 14 0 0
BITMAP
fff0
2270
2210
2200
2240
22c0
2340
22c0
2240
2200
2204
2208
2218
fff8
ENDCHAR
STARTCHAR F
ENCODING 70
SWIDTH 621 0
DWIDTH 13 0
BBX 13 14 0 0
BITMAP
fff8
2238
2218
2200
2240
22c0
2340
22c0
2240
2200
2200
2200
2200
ff80
ENDCHAR
STARTCHAR G
ENCODING 71
SWIDTH 765 0
DWIDTH 16 0
BBX 15 14 1 0
BITMAP
0fc8
1278
2418
4408
8400
8400
8400
8400
8400
87fe
4488
2488
1298
0fe0
ENDCHAR
STARTCHAR H
ENCODING 72
SWIDTH 813 0
DWIDTH 17 0
BBX 16 14 0 0
BITMAP
fe7f
2244
2244
2244
2244
2244
23c4
2244
2244
2244
2244
2244
2244
fe7f
ENDCHAR
STARTCHAR I
ENCODING 73
SWIDTH 382 0
DWIDTH 8 0
BBX 9 14 0 0
BITMAP
ff80
2200
2200
2200
2200
2200
2200
2200
2200
2200
2200
2200
2200
ff80
ENDCHAR
STARTCHAR J
ENCODING 74
SWIDTH 526 0
DWIDTH 11 0
BBX 10 15 0 -1
BITMAP
7fc0
1100
1100
1100
1100
1100
1100
1100
1100
1100
1100
1100
f900
9900
7e00
ENDCHAR
STARTCHAR K
ENCODING 75
SWIDTH 765 0
DWIDTH 16 0
BBX 16 14 0 0
BITMAP
fe3e
2218
2210
2220
2260
22a0
2310
2310
2288
2288
2244
2244
2242
feff
ENDCHAR
STARTCHAR L
ENCODING 76
SWIDTH 669 0
DWIDTH 14 0
BBX 14 14 0 0
BITMAP
ff80
2200
2200
2200
2200
2200
2200
2200
2200
2200
2204
2208
2218
fff8
ENDCHAR
STARTCHAR M
ENCODING 77
SWIDTH 956 0
DWIDTH 20 0
BBX 20 14 0 0
BITMAP
7f07f0
291c40
291c40
291c40
24ac40
24b440
24b440
225440
226440
226440
21a440
218440
218440
f89ff0
ENDCHAR
STARTCHAR N
ENCODING 78
SWIDTH 717 0
DWIDTH 15 0
BBX 15 14 0 0
BITMAP
fe3e
2108
2088
3048
2828
2428
2218
2108
2088
2048
2048
2028
2018
f808
ENDCHAR
STARTCHAR O
ENCODING 79
SWIDTH 765 0
DWIDTH 16 0
BBX 14 14 1 0
BITMAP
0fc0
1320
2490
4488
8484
8484
8484
8484
8484
8484
4488
2490
1320
0fc0
ENDCHAR
STARTCHAR P
ENCODING 80
SWIDTH 621 0
DWIDTH 13 0
BBX 13 14 0 0
BITMAP
ffe0
2310
2308
2308
2308
2308
2310
23f0
2200
2200
2200
2200
2200
ff80
ENDCHAR
STARTCHAR Q
ENCODING 81
SWIDTH 765 0
DWIDTH 16 0
BBX 14 17 1 -3
BITMAP
0fc0
1320
2490
4488
8484
8484
8484
8484
8484
8484
4488
2490
1320
0fc0
0440
0320
00fc
ENDCHAR
STARTCHAR R
ENCODING 82
SWIDTH 717 0
DWIDTH 15 0
BBX 15 14 0 0
BITMAP
ffe0
2310
2308
2308
2308
2308
2318
23e8
2288
2244
2244
2224
2222
ff9e
ENDCHAR
STARTCHAR S
ENCODING 83
SWIDTH 574 0
DWIDTH 12 0
BBX 10 14 1 0
BITMAP
3e80
6180
c080
b080
8c00
8300
4080
3040
0c40
0340
80c0
c0c0
e180
9f00
ENDCHAR
STARTCHAR T
ENCODING 84
SWIDTH 669 0
DWIDTH 14 0
BBX 13 14 1 0
BITMAP
fff8
e8b8
8888
8888
0880
0880
0880
0880
0880
0880
0880
0880
0880
3fe0
ENDCHAR
STARTCHAR U
ENCODING 85
SWIDTH 717 0
DWIDTH 15 0
BBX 15 14 0 0
BITMAP
ffbe
2208
2208
2208
2208
2208
2208
2208
2208
2208
2208
2208
1a30
07e0
ENDCHAR
STARTCHAR V
ENCODING 86
SWIDTH 717 0
DWIDTH 15 0
BBX 15 14 0 0
BITMAP
ffbe
420c
2208
2218
1110
1110
08a0
08a0
04a0
0440
0240
0280
0180
0100
ENDCHAR
STARTCHAR W
ENCODING 87
SWIDTH 1004 0
DWIDTH 21 0
BBX 21 14 0 0
BITMAP
fefff8
444230
442230
222220
223220
123140
115140
1148c0
088880
088480
050500
050500
060300
020200
ENDCHAR
STARTCHAR X
ENCODING 88
SWIDTH 717 0
DWIDTH 15 0
BBX 16 14 0 0
BITMAP
ff7e
4230
2120
1120
10c0
0880
0440
0420
0620
0910
0908
1084
3084
f9ff
ENDCHAR
STARTCHAR Y
ENCODING 89
SWIDTH 717 0
DWIDTH 15 0
BBX 15 14 0 0
BITMAP
ff3e
420c
2208
2110
1110
10a0
08a0
0840
0440
0440
0440
0440
0440
1ff0
ENDCHAR
STARTCHAR Z
ENCODING 90
SWIDTH 669 0
DWIDTH 14 0
BBX 12 14 1 0
BITMAP
7ff0
6220
8420
0440
0840
0880
1080
1100
2100
2200
4210
4410
8470
fff0
ENDCHAR
STARTCHAR bracketleft
ENCODING 91
SWIDTH 1865 0
DWIDTH 39 0
BBX 38 5 0 12
BITMAP
0000780000
000f87c000
01f0003e00
3f000003f0
e00000001c
ENDCHAR
STARTCHAR leftdblquote
ENCODING 92
SWIDTH 2296 0
DWIDTH 48 0
BBX 47 5 0 12
BITMAP
000007c00000
0001f83f0000
007e0000fc00
1fc0000007f0
f0000000001e
ENDCHAR
STARTCHAR bracketright
ENCODING 93
SWIDTH 1865 0
DWIDTH 39 0
BBX 38 5 0 12
BITMAP
003f80000c
03ffe0007c
3f807807f0
f8001fff00
c00007f000
ENDCHAR
STARTCHAR circumflex
ENCODING 94
SWIDTH 2296 0
DWIDTH 48 0
BBX 47 5 0 14
BITMAP
003ff0000006
03ffff00003e
3fc01ff007f8
f80001ffff80
c000001ff800
ENDCHAR
STARTCHAR leftquote
ENCODING 96
SWIDTH 574 0
DWIDTH 12 0
BBX 9 14 1 0
BITMAP
0080
0080
0080
0080
0080
0080
1f80
0080
0080
0080
0080
0080
0080
ff80
ENDCHAR
STARTCHAR a
ENCODING 97
SWIDTH 621 0
DWIDTH 13 0
BBX 11 14 0 0
BITMAP
3e00
4100
0080
0040
0020
0020
0020
f020
8020
8020
8040
8080
8100
7e00
ENDCHAR
STARTCHAR f
ENCODING 102
SWIDTH 717 0
DWIDTH 15 0
BBX 12 14 1 0
BITMAP
70e0
70e0
b0d0
a050
2040
6060
4020
c030
c030
c030
c030
6060
30c0
1f80
ENDCHAR
STARTCHAR g
ENCODING 103
SWIDTH 574 0
DWIDTH 12 0
BBX 9 15 1 0
BITMAP
0080
f380
8c80
b200
c100
0100
3c80
4380
8180
8080
8080
8080
4100
6200
1c00
ENDCHAR
STARTCHAR h
ENCODING 104
SWIDTH 765 0
DWIDTH 16 0
BBX 13 9 1 1
BITMAP
fff8
0000
0000
0008
3c08
4408
8208
8110
80e0
ENDCHAR
STARTCHAR i
ENCODING 105
SWIDTH 669 0
DWIDTH 14 0
BBX 12 15 1 0
BITMAP
ff80
ffe0
3fe0
0020
0020
0020
0020
0020
0020
0020
0020
0020
0020
7ff0
ffe0
ENDCHAR
STARTCHAR j
ENCODING 106
SWIDTH 430 0
DWIDTH 9 0
BBX 6 15 1 0
BITMAP
f8
fc
38
08
08
08
08
08
0c
0c
0c
0c
0c
7c
fc
ENDCHAR
STARTCHAR k
ENCODING 107
SWIDTH 669 0
DWIDTH 14 0
BBX 11 15 1 0
BITMAP
ffc0
ffe0
3fc0
0040
0040
0040
0040
0040
0060
0060
0060
0060
0060
0060
0060
ENDCHAR
STARTCHAR l
ENCODING 108
SWIDTH 765 0
DWIDTH 16 0
BBX 11 13 2 -1
BITMAP
0020
00c0
0300
0400
1800
6000
8180
6000
1800
0400
0300
00c0
0020
ENDCHAR
STARTCHAR m
ENCODING 109
SWIDTH 765 0
DWIDTH 16 0
BBX 11 13 2 -1
BITMAP
8000
6000
1800
0400
0300
00c0
3020
00c0
0300
0400
1800
6000
8000
ENDCHAR
STARTCHAR n
ENCODING 110
SWIDTH 765 0
DWIDTH 16 0
BBX 9 9 3 1
BITMAP
8080
c100
a200
9400
8800
9400
a200
c100
8080
ENDCHAR
STARTCHAR o
ENCODING 111
SWIDTH 765 0
DWIDTH 16 0
BBX 9 9 3 1
BITMAP
8080
4180
2280
1480
0880
1480
2280
4180
8080
ENDCHAR
STARTCHAR p
ENCODING 112
SWIDTH 239 0
DWIDTH 5 0
BBX 1 9 2 0
BITMAP
80
80
80
80
80
80
80
80
80
ENDCHAR
STARTCHAR q
ENCODING 113
SWIDTH 382 0
DWIDTH 8 0
BBX 5 9 1 0
BITMAP
88
88
88
88
88
88
88
88
88
ENDCHAR
STARTCHAR r
ENCODING 114
SWIDTH 765 0
DWIDTH 16 0
BBX 11 9 2 0
BITMAP
8000
4000
3000
0800
0400
0200
0180
0040
0020
ENDCHAR
STARTCHAR s
ENCODING 115
SWIDTH 765 0
DWIDTH 16 0
BBX 13 5 1 3
BITMAP
3808
7c08
c718
83f0
80e0
ENDCHAR
STARTCHAR t
ENCODING 116
SWIDTH 765 0
DWIDTH 16 0
BBX 13 10 1 0
BITMAP
3808
7c08
c718
83f0
80e0
3808
7c08
c718
83f0
80e0
ENDCHAR
STARTCHAR u
ENCODING 117
SWIDTH 765 0
DWIDTH 16 0
BBX 13 15 1 -3
BITMAP
3808
4408
8208
8110
80e0
3808
4408
8208
8110
80e0
0000
0000
0000
0000
fff8
ENDCHAR
STARTCHAR v
ENCODING 118
SWIDTH 765 0
DWIDTH 16 0
BBX 13 22 1 -6
BITMAP
4000
4000
2000
1000
0c00
03f0
0e00
1000
2000
4000
4000
0000
3808
4408
8208
8110
80e0
3808
4408
8208
8110
80e0
ENDCHAR
STARTCHAR w
ENCODING 119
SWIDTH 765 0
DWIDTH 16 0
BBX 13 22 1 -6
BITMAP
0010
0010
0020
0040
0180
7e00
0380
0040
0020
0010
0010
0000
3808
4408
8208
8110
80e0
3808
4408
8208
8110
80e0
ENDCHAR
STARTCHAR x
ENCODING 120
SWIDTH 1004 0
DWIDTH 21 0
BBX 18 10 1 0
BITMAP
002000
01dc00
060200
080100
080080
100080
920040
5c0040
300040
000040
ENDCHAR
STARTCHAR y
ENCODING 121
SWIDTH 1004 0
DWIDTH 21 0
BBX 19 9 1 0
BITMAP
0ff000
100c00
200200
400200
400100
800920
800740
800180
800000
ENDCHAR
STARTCHAR z
ENCODING 122
SWIDTH 765 0
DWIDTH 16 0
BBX 13 14 1 -2
BITMAP
1ff8
1c00
1c00
1c00
3800
3800
3e00
3800
7000
7000
7000
7000
e000
e000
ENDCHAR
STARTCHAR endash
ENCODING 123
SWIDTH 669 0
DWIDTH 14 0
BBX 12 9 2 0
BITMAP
1830
28e0
0980
1380
1f00
1900
3100
e2c0
8300
ENDCHAR
STARTCHAR emdash
ENCODING 124
SWIDTH 574 0
DWIDTH 12 0
BBX 12 14 0 0
BITMAP
fc00
4400
4400
4400
45f0
44c0
4480
4580
4640
4640
4640
4640
4620
ffe0
ENDCHAR
STARTCHAR quotedbl
ENCODING 125
SWIDTH 526 0
DWIDTH 11 0
BBX 9 14 1 0
BITMAP
3000
1080
1700
7800
2000
2e00
3100
2100
6200
4200
4200
4480
8500
8300
ENDCHAR
STARTCHAR hungarumlaut
ENCODING 126
SWIDTH 526 0
DWIDTH 11 0
BBX 9 14 1 0
BITMAP
3000
1000
7f00
1000
2000
2e00
3100
2100
6200
4200
4200
4480
8500
8300
ENDCHAR
STARTCHAR dieresis
ENCODING 127
SWIDTH 430 0
DWIDTH 9 0
BBX 6 9 2 0
BITMAP
70
08
04
04
04
7c
08
10
e0
ENDCHAR
ENDFONT
